<mxfile host="65bd71144e">
    <diagram id="HIP3nbAZw_EuaXWnEj3U" name="Page-1">
        <mxGraphModel dx="774" dy="805" grid="1" gridSize="10" guides="1" tooltips="1" connect="1" arrows="1" fold="1" page="1" pageScale="1" pageWidth="850" pageHeight="1100" math="0" shadow="0">
            <root>
                <mxCell id="0"/>
                <mxCell id="1" parent="0"/>
                <mxCell id="7" value="http://ics2o.mths.ca" style="swimlane;whiteSpace=wrap;html=1;" parent="1" vertex="1">
                    <mxGeometry x="40" y="40" width="760" height="480" as="geometry"/>
                </mxCell>
                <mxCell id="8" value="" style="shape=image;verticalLabelPosition=bottom;labelBackgroundColor=default;verticalAlign=top;aspect=fixed;imageAspect=0;image=data:image/jpeg,/9j/4AAQSkZJRgABAQAAAQABAAD/2wCEAAkGBxMSEhUSExMVFhUVFxcXGBcYFxcXGBcXFRcYFxcVFxcYHSggGBolHRcVITEhJSkrLi4uFx8zODMtNygtLisBCgoKDg0OGhAQGi0lHyUtLS0tLS0tLS0tLS0tLS0tLS0tLS0tLS0tKy0tLS0tLS0tLS0tLS0tLS0tLS0tLS0tLf/AABEIAKgBLAMBEQACEQEDEQH/xAAbAAABBQEBAAAAAAAAAAAAAAACAAEDBAUGB//EAEcQAAIBAgMFBQQGBwYEBwAAAAECAAMRBBIhBTFBUWEGcYGRoRMisfAyUmJywdEzQoKSorLhBxQjs8LxJDRDcxUWU2OTxOL/xAAbAQACAwEBAQAAAAAAAAAAAAABAgAEBQMGB//EADkRAAICAQIDBQUGBQQDAAAAAAABAgMRBBIFITETQVFhcQYiMoHBFCMzkaGxFTRC4fAkYnLRFiWS/9oADAMBAAIRAxEAPwDsWuLC9x6zyxvscOAd+nwkIA7XYeHpCgPqP/8AmRkFS3+H4yERNB0GbSQ5UjW059rDxOfawXeODfdOkWn0G3J9AgIwGORCADIR18THAEB0Pn/WEA5Xo3nCAYU+jeYhFwFk6N5iQI+U/a9IwBZTzaTBBWPM+IkwgZHRL7zfx0kCiUiDAQQ3STAMjgwYGyORIQEiBkAZeIgCLeJCAbtDu5wBHMVoIxEBATIMCRAEjZhu84pBHU25a/lIEOQIpCEW9u4SC95KZAjZRyEhMCZbyEwMEkJgjq7x3GEVjtvPeshBqW/w/EwPkQ1adIIoJHvHXuHP55ShfZhZfV9F4Lx9WZdtrsfkA1QcSPEyg2ceRWxVHTOuhGunGdK7JQeUx4zcXlEeExGcHmDY/G8265b4qS7zShNTjksWnRDhQgMJu01FarUXDqEYqahA9ncb72bMADpci2h4azSXC75adaiKzH9Sm9bWrOyb5m2qX5esoeRZMvbm2VwxQGmzs4YhVI0VbXJLEAbwBz8CRf0PD7dY2q+4ranUwoxv7yme19G4tSrEH9ayr/CzhvSXI8B1kouWP1RXfE6M4NvAYxKyB6bAqfvAgjeCp1B6GZVtU6pbJrDLkLIzjui8oo7Y29Tw7rTZHclQxykHKpJAJuQSTZrAX+iel7ej4ddqoylX3HG/VQpaUu8qDthRzfoq2X62VLW55S+fwtfpLf8AAtY4btvyzzOP8So3YybmDxSVQr02DK17EeoIOoINxY6i1pk2QlBuMlhouxkpc0VE7RYc1vY5znzFL5Wy51JBXPa17gjv0lh6G9Vdtt93xOS1NbnsT5ku1tq0sOFNQm7XyhVZi1t5so0AuNeoHETnp9LbqG1WsjW3QqWZvBPh661FDoQysAQRxBF7icZQcXhnSMk1lGbje0dKlWFFg5+iGYAZUL/RDa34g6A2BBMtVcPttpldFe6jjZqoQsVb6s1aldQpcsAqgksTYAAXJJ4CU1Ft4S5lhyS6swm7X0L6JWI+tlUA9bMwb0vNWPAtbKO5Q/VFJ8SoTxk1cHi0rKKlJgynvG7eCDqrDkdZlW1Trk4zWGXYTjNbovkT75zHyBu7oAjmK1gI60ydwiOS6IjkkUcZXKfStl115W5ypDUuU9uDsopxb8CRbAX8ZcOYqa2EUZByEFIQjKkG44yACz89JAj3kJkQaQmR5CETat4D4yAEzb+dx6SEySUFN7nifhOdzxWzna8QZc25XNNarjeitb9hdPhKeojv1OzzS/LkZMTldn7MZ0FSpVqFmF9GKgX5ATVcK4vbGKL8aI45m9s9CvuXJBF9d8xtXWoWcu8q3Q2ywZ+Ca2Iy/Wp+qsfwMvaB5qa8GddK+qNqXEi4xExsAyeWjFLUd9bly1W32aruVPXiPCfS+GxjDTwr79qbXqeP1TcrZT8+XyOl7GbROtFyT7M5QSTcrYFfIEDwni+K6RUaiUY9OqPQaK/tKk2Vu17f8VbgKNO3i9Un8PKb3szBdlOXi8Gbxh+/FeRzuFoMVeqCb02qFrk2ZFZgbg8QNR9224zitbbTr2pSym8DvTws02UueDV2Nj2oVl1OSobMOTge63iFynuWdvaDRKUVfHr0YnDL2n2bJe0FbPiqp35fZqO72SP8ahlj2eht0zx3tnLijzd8jFwVBvZircm2VX1JvmYJm14hiNeV+kpaPW2V6x1zk2m2ub/I76jTxlRuS6I3OzW0DRrqhP8Ah1CSByfjbvFz3qecHH9EovtorryYeGajP3b7uhi1ah9nn/W/SX+1mz3/AHtZryiv4djH9H0KKf8Aqs+Zr7ZxRqf3ctvyVv5qMxvZ5Yvn6fUv8Uea4p+JY7KbRNOqaJPun306XPvjuzG/7c4ce0iru7SK5S5/M68Nvcq9j7jO7Tgmvi+d/wD69O01+EwUuHbX37ijrZY1WfQs4vaTPh0pE/pGzNqbladmt+8afhccZi8H0qt1ab6LmX9de40Y8TIqKXqBLsPdvoSupNgbjubTdNnjWrtpcFW8ehQ4fRCeXJZNHsvjnp1bXuHCluRZSVz+IC/uiZHGoqyNVzXvSjzL3D3tlOtdEz0Qai4nm2bCBZr6en5wYCQYyoaahgCQu8DXSVr6pWJKI8XHmmQbO2t7diqqwVdSSDa5O4Xt8JRvosqit7+QE688upU7StcLTG92C+ZufRTDoo5tz4Dt4rfng0cu5eVv6TQ72AIwBTEZ0rpss+FEIbnideWkayiyv4kQJavOccETDBgCMaY5SAGamOUgcDezPBjIDAlp8SbyEwHaQIdPeJzuXuM5XLNbRc2ii1PaL+q4IPcw18dZnX2rt3ZDxyjJXIz8PhWRVU62FrjiOGhl566tvLLy1MUizQpZbsd9vIDWZ19vay3dxUtnvlkwcOxOLW3CmSfFj+U1OHx+5k/FnXTdTbL30uPIy5gttlLbNc08NWcEXWk5XQ/SynL62neiG+yMfFo52y2wb8jzelSC1ARa3vUx91VplR4EVfMz3VN3/sZ19yil+S/uebsr/wBKpebNHY1XLiuFiqH1cH/T5zL9oa/vYy8V+xc4XL3WvMv9p2vimOn6Onu/aP4y77NrGnl/y+hX4t+KvQqdmaQcVkNrP7ZdepYTD4m/9VN+Zo6RfcpeRmV6l6aNzakfN0nquJe9opPyRjaTleiznzVKp+2n+RSnPgixpV6sbXvNz9ET7HUnCYiw/wClUbxAZh62nmLJbdXn/d9TXis0Y8ipXazUm+rUv/A4/Geo4ys6X5oyNC8XL5kB/wCXH3F+AnW2O3QNf7DnB51CfmamN3UPu1v5qMxPZ/lfP0+po8T/AA4+v0KhqZHpVBwYC/R9LfvZPKafG6e0025c8PPyKnD57LcPvJdrVM1TEHmR/kU4OEfyP/19Sa3+Z+aIbfoP+3V+NGUOAfiz9PqWeI/BELZwviv2Kf8ANV/pOXtA/v0v9v1Y/DF7j9Tpv/La02X2SkD3d5JAVb5VXkBczCt1VlqW95wsI0oUxrzt7zqaP0QOkostIMiKwoEiAYJVsp6m3lqfwlDVv3f89X9BessHPVmz4tRvCBm/0j4Hzj6GOK5S+R1t/pRrqPWWGBCMVjEeKUsmVWKnde3PiOttPKb+jblQlHkIk9xkbRzqFRMzMXGVjbTvbjxPpHtyqGp82dukW/l/c0b6+9POnLvJfa9DANkNWvIQeQYUhBXkAxSEQ9ocAYYxtrK/cDzH56zL1NU4vPd3My7anB+RIcUn1hKZwyZm1drIi6mw9W6ATtTRO6W2KCk3yRD2dwze/XcWapuHJRuE9DGEa4KuPcX6obUbAIBMJ0zgx+11a2FYA/Saku8bjUS/oDNLhVe/V1x88lTWy20SOCWtTyKPaKXFQnLmXNd3dSLXvoH9Jt0Tm+JuTXLLRm2Rj9k2+RNSbLXpNewsw8boR8Glv2hh7kJfL88HHhk8SkjT7QPmxDG9/cpj+En8R5xvZ1Y08vV/sDiv4q9CLsviRTWtUO5Pbt35Wc2+ecwtfFz1Uku+Ro6Z7aU34GVXp5aaLyakP3WW/oCZ6rieIaKSfkjG0nO9P1J6f06n31/yqY/CJwX+VXqxtf8AjMt7GqBcFWOl2pMq/eqjIo8S4nl5Q7TV7fGX1NdS2058ihjDqg5v8Ec/hPT8ZaWmw/FGPoedufUib/lx/wBtfgJY1P8AJS/4iV/jr1NXHDSh92t/NRmFwH8afp9TR4j8EfUxdmU70BSJOigA8bMMyMO69u9TNjRSWp0rrfXnF/Qo3p1WqfzJaNf2iVWO83uOTCmoI8CCPCLw6GzSuPg5L9w6qW65PxwWSNKH3KvxozL4D+LP0LfEfw4gUaTvVZabWbLTI1K6ZnuMwBK3sRcQcZlCOri5rMcLK+bDoFJ0tReHku4THVaGIUO73WoUYe1qVFYNRZx9PvXhoROGrhprdF2tMFF7seZ1plbDUbJyzyPQ8JW9oqtaeaawa6eSwREHBYQMIFWrZe65+fSYt9u+Q0IczE2EmZ6tTm2Qdyix9bzUqhspivn+YZvdNs2GEJADAxihtFlYZKjZAba3yggEGwPXce8zdpthZTtUsMG3BnY3EU8ho0ffZjoFJYL1vwjb401NTlk6JqPP/GbVOnYC9rgC562nn31ESJIAleuNZBX1LEg4pCHJ7ZxNarWWjTJF72sxUAa6kjU6C/pw1uqEK4psu1dnVXvlHOeRUo7Tr4SrlqsWUFQ6li4Aa1nRjqLXGm7f3wOEJxykWJVV31dpFYZ3CtfdKpjp55j1KQYWYAiMuQrWTPrbGU7qlVRyDm0ihX3xX5HGVEPAWE2HSRg5Bdr2u5LH1nXdhYRI1xRqtSvx/KQdofIRu+AkQMNHN9tapyUU51bkW/VWm/8AqZJv+z9alq8+CZl8Um1Tjxwcfh8JVqUjURnJ9mXA9218uYDdu4SxLiuojd8XLPl4nJaOt15xzwLEN71NhuDjyZWUepWbfGob9Lu8GjP0Mtt2C5i2vVqHqn+TTi8CWNM/Vh4l+L8inhKlqRX/ANSoeX0RUNQnuNgP2xMnTU9rxDyTb/Uu2z2ab5DMueqqjUJqfvEWUfulj4rL3HdQsRpXXqyvw6p5cywaeVnXk7fEy9wj+Tj8/qVtb+OyDBVP8CjT+sFY6fqoo/1Mh8Ji8Kq7TVufcssv6ye2jb44Hoj2law3KCvezWJ8gB+8eU7cc1ClJVL+nr6+AmgqcVvfeQt/y4/7a/ATZ1P8nL/iUKvx16mtj92H+7W/moTD4D+LP0+po8R+CPqUcLhz7CnWA+iqI/3WACnwYgdztE4Xqex1Tg+kuXzyHV1b6dy6pAvSCrUsLZszHvIsT6T1EoKMJY78/sZKk3JZ8iyaZ9hSqW0VshPIOtx6oo7yJ5Tgtqhqtr70zZ18c058GiPDVhSrrUbRSApbgMpJF+Q95td2nWaHHtLOe2yCzjrgrcOujHMWyztOutfFl6dit8wP1lSiEZhz99wvrMuVcqeHbZrnKWS2pKzV5j0Swd7sX9Es8/PqasehdM54HGMUKMPa+KrD3Fok33EEWPK/KUlw/Ms7uXodI2be7mW9kYQ0qSqfpb27zqZcm03yEjnHMtmIxgDFGIqo3Hz8ZCMSqBuAHdA22HkFAMKQBCaebWQUmkHEZAM5XaWHV67eyqZKinUG62J1JVhuGt/HqL3a92zL5l6Fk4V845Xcc9tOkc3s84d3YC4JNySLm53986J8s4LisaolOawu49GwtlUAndp5aSk+pgroWVYGQgTDSFEGP5GOITLuhJkORAZyfbnDVWak1NCwVKg0KizMUsWuRp7u8X49Ju8G1dWmc5WdWsIzeIUzt2qPTvB7GUMotwAC7t9haZ1ryyzXyRyu3MOMOWoMQCpvSBNjUVCGplRvY6KDbjeevq1dep4e05Lclj5mHZRKnU5S5ZLNei9zUCMUZUJKgmzgZSCBqPdVD4mVeE8Qqorddjx4HfW6WdklOCM7B0DuXPoAuepbQclUC5PeBfS5NrRnr9LplJ6dNyl3sT7PbbhWPCR1fZrYJLBspyg31Op6kneZgW2ubbk+bNOutRWEVu1Oy3pVqrZH9m9mVgM1iygMPd3HMGOo4ib/AAriVNen7O14/wCjN1mlslbvgjBwlBj7ozgWALvlzZRuCKBYbzvAtcnWI9fRpq3HSrm+8K01lslK3ojrezWwrHORYDUDfx4k7yeZmFOxttvqaEYJcjC2l2fr0bUiAUUgBw1yyoQV922hIAuDuud/Hbt4tGzTdik08JNlGGicbt+eRr4rYdWpRpvTy5qecFWJUEVMh0IU6goNLcTKPD9atLa5NZysFjVad3RSTLPZLZn+E1CqLqU9m3IjLlMo2Te7cvHJZhHltZz+2tlVqBanlNQG4WoCoBB0BcEghhxsCDa432HpauNwlRia97GDInw+UbPd6Zyb/ZnZy1aD0nF1YW32OmoIPAggEHgQJ5hzcJqUeTNdQUltfQxNp7HxFBrZVqDg1ypt1UKde7yE9HV7Q5j78OfkzLnwvnyfIHZOz6rMSRqxGovYAblHrc8fIDI1+ulqZ7pcl3Iu6bTqmOEeh4fDZFA326zIl1L6QRX7Nu6KwjAnvHrFGHzAxRhGKMAYoSN2gCAz9PhAEiDEaaeJgJlhZzyHnJgOWMzE8rd8AAs/QecgQ5BhSEMzaex6VdgWBDAfSU2NuAPPxnSFso9B4XThyiwNndnKFFs4Us31mNyO6NK2UhbbJ2fG8mslMjjEOWA6iceIhQGSIbgGMAYA+VxGQrJKe755wgDYHhGQGRGgTcHW/Ux8iYFhsGE+iLeJhbyDAG0Nne1Wx+JjRlgVrJFg9jBEKbwepj7si7R6ewKYN8o8zG3sm00qVDKLAAeJik5g4nB+0Fm1HeYyYGmU6WwKam+UeZjbmLtNKlh7C2luQgDgWIwytqwBtAFg06Q3W/3/AKCRkQhRVd2kASLEUFcWax7xAQWHwioLADygbyMkhVcODw+e6KHBGtBQbAAW1gYe8Nx0iDAAjr3GAInTwMVjEbrzHiIuAkZax33EhO8MxGOVxr4/AcICCZde/wDCKMRsLcVHhIQVxz9ICDi3yP6QBC05ekhAjIHIpCAD6R7hIAlEKIEIQMTnQxkIwqY0HdGIBi8QtJTUY2A39eQHMzpXCU3hBjW5vETmMT21sSEpiwvcnM3nl0XzmhHRwXxSNGPD4L458/kaPZ7tSmJc0stnAvcG6np0M436fs+j5FXWaV0Y59TpBOCKIQhAIuBxjJCtjiqI2AZJVMYGQpABARkAK0IB7QkI6p9NfyEmACC2EDGBKnn6RSAkHoZAjZuG6KMmM5trFDkiRTa/EwMKEVPOKwgNfiL/ADygGBW3CIwiMA5Xvc/O4QAHQaesRjIBUOYAcTp4xJy2xbI3hZLdXC06fv1qiqB1AHmZm2a2cpOFcTi7m/hRj7V2mtQBMMjE3H+IVIUai+p+lpynbTU371O18vDvGjv6slznr+7LeDvkcMeTHykIFmP1fWAOQSOnrIQWQ9B5yECcWseXwhwHHeSiRACEKFYNTUgeJjoVk8KIc52zvkXpr4nj4W/impw9L3pF/h3xmV2c2imHw4JX/Ee5JtcnnxFhe+p48Drbt9mc5ZmyWaWy26T8/wBAMLt32DmotClY6tlUI9uJBGl+ltecNukTjyZYs4epr4nu8+aO5wONFVFqobowuOfj1ma47XhmHJOLafcWLlt2g584UJkIWG4X7oRQ8/MGNgA+TiD4woDJKb8DvjAyVdq7bw+Fy+3rIhb6INyzW3kKoLEDibWE611TseIpv0ElZGPUzl7dbPzBf7xvNrmnWCD71RkCqOpInZ6O9LLg/wAhO2g+86O+l5wwdCML+Z/CQiHfw8YoSEr9keYgYQKrBRfceHIngIEsvAG8IjxLtT1qWy5iLgW3OUB1P3D+30M7WUbVlCQty8MTPmtbcdfCVTv3juOl4owFhyIisJFiawpjMx0j1VStlticdRqa9PDfY+RiY7tHTGg38Oevw8jNKrhiX4jMG/jzllUR+ZnUNrVziEQOSGHvKQLAa6jlBrdPTXWsLDG4NrNVfbJ2SyvQ6Ujh3D8TMY9MSGczoh6RsynkR8ZytWYMWazFljaux1rV0qubLTDaaa36ncBaZENU65zUFzb5FSM2o4JaeGoVV/w2VgNMyPex8DJZPUwW6TCrpJmBUBSqaTXJtdTfeAbEd4uPOaWmt7WG59UW4yz8yTIeR852HH9n09YCDuNPEfGQJg9rNsGjZBcXW+hyl9bWzb1UC5NtdVAI1IuaWuMsylzL+i0zteV/3j5ef5HHVsfVq3slMAi2lNC3/wAjgvfrmvLrkkscvyL8/smnliyTz6v9lhfoPhdt4ii11qEW/UOqacMvDwtOcq4yLP2bT3wyufmd52b28MUhsAtRCA633X3MPsn8JSsr2PyPParTyontNtFtEKpJCQzdv4P2lPgLAi/K9iCemZVueALS/obVCeH3nai3s55OFqYcZwtUEBW99eNhvFpqWxk44ibF26yp9i+b7wdqVKSs5pKVQn3F65QLAcLm58YtalCvEup0oUowXaPp1Z2/YfDtTwqht5NwOmky7XmZ5u6xWWSmu9m/UU20/wB4iOLDpsOHlCQkEKAxiltR5RhGO+648IyFZ5L21Vv/ABDEMxvcUSp5UzSUAdBnFXxJPGez9np1xolnCeTJ1yk5oxmI47us9G8Yw+hQ7z0D+zTbBqUUpMb+zzJe99KTFF9AJ831VahbKK7mzdqk3FHcBiOvUSszshi32YoQWv8AVEDCRlwCCQQL6g6gqdGHkTGqeJC2LKOb7Z7UpVBRpYepTqBnZ3dGDG66KrFePvHfrpLNr5YONa55NbZKEUwT3TPkW4lsk9DEHBL89IoUyHGUVqLldcynh+P9YYzlB5i8MWyqFsds1lGPiNk0KVNiiAHXU6kcba7rmw8Zd0c523JyfTmZXE4VUaSUa0lnl/n7GX2UpBqlWqeByjuH+wk4nNueAcCpUNMpeL/sdLTGo8/EzLZuokMQcAxfIg2IwD4lAz1C6g/otFUkH9a1s3Ox0mcr6NPa0o8/FlZ7Yy5o0NnYb2QZmsoIAt3cdJz1WpjZFqPMFslNrac09b+8Yo1V/R0wyg8GZrXtzACjxvLekpdVPvdWd649EXfZ93lO52wP7Pu8pCYE5Ft4kIyjtbBUq6WqWsPevxGms6VzcXyHjOafuvBg7B2rhEX3QBf67IGI4bzYd15bnROazlHd6CyLzhvPfhs5rtHtJa1YuFCKBl3g3sT71xod/Cdq47Fhm7o6Vp6sN9S7/Z3mOJZhfKRY9bTlf8PMyOJ3RnNJHpspozAowBjc93LpGQvmY+0eza1rMKjpyAysAOQzC4HTcOAl2GtsisFmnVzqXJIHZ3ZCjTYO5aow3Zt3lFnqZz6iX6m25Yk+Xh3HRFOI0InLJUaHR+HnCANl4jfGA0Gj304wgJIwCKq5VHI3qGI46gEjSPHqI+hz/wDaf2rq7Jo4dMJRR2ruy5nBZfdC6EKRmd828n9UzRSS6FLOTm6faIYIDFUtnZ8TVYe1o5gpw30UNOkli16lQuwAH0RyXS1bfdOuMZN7V0EjCKk8dTte1lelSrUKigLWe+cAC5SwsXtxB0B+9ylGzGDvX1NKn7wDW38vylU7YBYHn+EGQ4GIHG4isPIGo1gSG3AnfygXUJ552MwIajQbi2dj4u1vS07Wy5nOtHfpoLXXSVWd0LfwB7oBkNm8OhihB7tDy4eEVjIz9u/om7h/mU5pcL+NmD7QN9gv88DF7IN+mT/3PTX8px4isW5LPBZ7tLFeGTpU58zM1myhzFHAMVkIQ7KTlYr1FuPQzhZp67OckBxT6lXEYdqpIq1XdfqkhV8QoF/GGumuvnGKz4kVcUTpSCgAaAbgNPhOjeep0SSHIHP1gIN7vP1kIZ+3dqf3eg9a2bLawsRcsQoueAuZ0rhulg6VV9pPaYWwO1bV2FOsqqXHulQbH7JBPKd7NPtWYl7U6B1VK1P1K20extmJotYE6IRoOgjQ1PczjVxG6vCfNHLY/AlWyuAGXxsQbWPTT1lrO5ZRvpx1NeV3o9F7E+yagHprZvouOTLvA6cR3yje5Z5nlrqXVNpnSTkcht+nAb/yjAHduEZCsmQaQgDEZEYQjCidLxkxWOr8DvjAySMt++HIrQ4qc9PnhGADUrKi5nYKN9yQB5mFc+gr6czg+1/ahBTTD0quExKO9mpOKWI9mAjsGVTcCxAHvAgZgBbSbfDKHfcoWJ7X3lHUyjGLcepyVPGVFc1FqOrn9ZWKt3Araw0AsNNBPa/ZadircVhGTvlnOeYFLHVUrtWI9qWVATUqMDdCxBLFWJ0b0mPxDhEr7IupJItUalQXvHRVO3mMsAi4emB9h6h8y6j+GVq/Zpf1z/JHWXEM9EZ+I7U49zri3A5KlFR/lk+suV+z+lXVtnJ66xjYLtZi6Dq3tHrhiENN2UC7kBWDBdCDbTdYnvlHinB6KqVOvKx5nXTaqcpYZv1sTj8ShD16GHVhYikpdyDvBJNvEGea9yPTmaHvM0uz2EFPIik5aa5bneeN7DqZzm8jxWDpAeR+e4zgdBmPMeI0PlFGBzftD1ihB7jfoYGMVsfhvaJlII5EW0/MdJ0ovlTLdEq6zR16uvZYUdkbJXDh7MWZt5PMwX3yteWdNLpoUQ2Q6Gta0rFtAmKwgtFYSKqOMgxAW5gedoCD3H2fUxQiz93kZCBZ+voZAciptTCrXpPSYmzqR3HgRpvBsY8JbXkeE3GSkjyurSehU9m/uuh0O4G25lPlNOMoyR6XTaiu6GGdXgu2DlQKgpgjTOfaHxyKpuelx4Tj9li31KV3C0nmGX5cv3Zzu2servmF7AWBbRnJYszEAm12Y2A3Cw4XlnklhF7Tw7Ct73z/AG8v87zrf7OMO603ZtMzXt1/2tKWofM85q7lbc5L0Owdvnl1ldFdj5rDT56xgBU1jCkwkQA4wGINra+vz+Y850w+ouVnBJIQTLeFMVoqbR2iuHpPVqXy01LG2pPIAcWJIAHMida4OclGPViSkoptnne0u2mMraKUw68kAep41HFvJR3z2Gl9m4RWbpZfguX6mRbxCT5RRz1annbPULVG+tUY1G8Gckjwm7ToNPSsQgilO6curCEtJJdEc8seEAxMEmkveCufQhXFK2iXc/YBYdxb6I8TKF3E9NT1lz8uZ2hRZLoialhq77kVPvEsf3V0/imVd7Q4/Dh+f9izHQv+pmls/s9ULqzksRuAXKoO69tSTYneeMxdZxS7UrbPGPBFurTRhzR6RsfZiIgzWJmRKRcSNZVA3WnNjjOt4o2CNqfX8YMhwRvT+R/WDJMEZHXzEVsKQLDoD3QMIyru8/yisZEhijgmKwgtFCiGrw8fOALIywuPGAIWYcx6QEGzj63wkILOPrSEyN73X0jA5mdtbZSYgZai3PPTTxjwscOhE5RfJnOVewP1KhHS5nf7SWVrNTFfF+hPs/sKqtmdr+ZPrBLU+Bysuut5TlyOvoUVpqFUWA3CV22+pyxtRMump3/OkIAkXzhyAkjIgcKABUqgFb2tfW5AFrHeS6AfvDxvY2dMoufvFe9tR90v1a9CkpNVqaIbGz394kb0BYnN3TVxGKx3GfmTee84XaO3MS2JqrhquHFAN/hko5NiAW6fSLW6WlSyNW7oWYOzHUGpiNoNp/fKajiVoAnwDD8Yi7Jdw33nezP2zsOtXpG+JxFaoCrKrELSJRg1ig01sQDwJB4SxptSqrYz28k8nOypyi1k5estRTZqNUNyKgfxE5T4Ge0/jukx1fpgx/sduRlpVm+jSA++4H8gaVZ+0VS+GD/b/s6x0Mn1ZNW2XiQjuCnuqzABGNyATbMWHLlKcvaG1v3YpI6rQxS5sjVrgEcdfOesjLckzMaw2iJ6YarQDAEF20IuNKVQ7j86TE4+/wDTr1Lei+M9I2P2ZVkVju5TxUpmyo5Ohw2xqSblE5OTH2l0UlG4CDIyQ5EXIcELgXtpAyBmKMMYAgsYAgGIEjdAeEGQ4BVLQNhSEYowJihBaAJWepfQDxgJnIFieZ8B+MgcD+zPL+WQmB8p6/wyAHyt1/hkIPn7/KAbI1JtTwgAmSyDIUhGMmuvl+cYUNddfL84QMlhAPGAC9Tl5xkKxlpXFjuPrHTwLgyMT2aR3zc986q5nN1LuL+D2LTp8IHY2HYkXxhl5CDcyYJVpAbgIckwU8ZsinUN2EdTaFcUxsPsSku5YXNgUEW/7ogFso1085NzBhHiOHpZFyb/AGZNM99MlD6rPp+hs7TTQl5Hmro7bGvML/qUTyqfzI6/jM/jyzpG/Bo76J4sPYtgk+xXUeU8FPqbseho3bp6xBuYJc3sR6yMgqj2gGIjp1PxMAA1FhFYwxMAwDNaAgBqdD5RWNkEv0MAUwTUHdFCImBhBJiBIq24wBYKj56fN4GFA0xvHAGQKFY9fOQgsvQeZgIKw5DyMgBih6eZhyTAvYE8h1uYSMlWmwGuvz0kwRMGoOEULBeoACT9Ebz+E61VTskowWWzlbbCqDnN4SMfB9o8+IWkUAV75GB1uPrDdr0mzreD/ZtP2m7L70Y+g4ytXc61HC7mdAWmKbYj13cvzjJisJRxPgIQEwMOSDxkAKHIrCBhAFCAeEAi1oxGANfn0hFPI+0WF9ljMRTta9Q1V6rW9/MOmYuO9TPfez96s0ijnmjB10HG1sx8bUyhLb/aIQBvOVgzW/ZDTvxpx+ySi31x+5z0n4mUej9lu1OHKCm1ZUYaWqXX+I+76zwdlM084NyFsXyydctQkAixB1BB334ysztkbdqfnpAQbqd59BIESDj5QNhwOxihIme/Qc4AiW3CBhBY62ihBJI6wBGdooxE5AuTpbW/Qb90kU5NJAk1FNvuMivt+mu8792n5Gej/gUIR++nhnk//Ir7ZP7PVuS8f8Raw20VcgHQndxB46HulDX8Hs00e0i90f2NHhXHq9bPspR2z8O5+n9yc0zwPz3zGyegaG9kenrJkGBvZHp6yZJgcIenrAEWQ9PWQHMlkCH9X54/PlH8AeI19eUGeZO4Z1BOvz39PyjJbpbUJJqCcn0Rym3trBj7NWAF7XJABO7fy5n5PrtFofsVLtccz/Y8brtc9feqYy21rqzJ2fUy4igzMLBmuxIC8r33WlnikZ2aLkubx6nPg7hVrZLOFzS5nfq1t/z3TxGGup7clUHefKEhJeEAV4SBCHIoUYA8KA0PeEGAi0KAyO5J+dP6xhSUDhIE83q4NMdVxGJqKGBf2NDmq097KRqM11Pi0vqcqVFQeH3lRRVjbZPg+xOVgwGp4ksxtyBYkgdIturnZ8cm/VjxpUfhRuV+ylNkswDd41Hcd48JwVzXRnR1J9TJ2Tia2z6yYSqS9GoQtFjvDEgCmb9SBy1B4m3dxVy3R6nFSdTxLodguLQk3YAqSpUkXDA5SCL89OsqyrkuqOynFko1Px/Kc2dEiQmAJGde74wZCM53QBBvc6RWwjONbiDIQLG9zAQTb7wDkdQ37uJO6SKk2tvUWclFNy6GQVw+GzMqgE8z6a6gTcq4ZrNXiVrwvNnnr+NaLSZhp47m/Dpn/PAyKFU1aqCmPdDhmbcq63t+E0uJayinTOiLzLGDJ4Pw3UW6z7VbHCznwOsniz3opCYFIAjNTgNZCDjN08pCCptfTiPm8KIWjRI00OpHzrOmxo5qaY+Q8v5b77d++NtZNyAeid1t+m8cbjh4wJSg8x6gkozi4y6M56p2dQnSo/8ADp6TTXHdUu9fkZL9n9G30f5sxMVspziFoZagTW7jittDcaTWs4wvsilGXv8AL+5l0cD26uSlH7vuOywOFFNFQEnKABfkJ5WU3OTk+rPWRgopJFoGBBYjU4bzChRw/PT4RiEl5ABXhQB42QD3kyQiZyTp89Y4j5hoxH6vrIDmKpUNj7p3GFEZwXYY/wDD0FN7Av1/XJlzUv32VtP8CO/FZecplnIQqDmJA8iGq6q6uRdVILWVWKgX95Lg5WF941te2trWdNaoPD7zhfXuWUQ7S7aYahTNOgGq1DfejKt23s+YC/cByGgl2VscFVVvJR7O4x3X3ha0zLOpfh0NiodJyyPgG3DlAEYGAKANTlrAwjFm5CKHmCXPEQMKHvFCVNoI5X3N/K9tO/gZe4fq4aa3fNZRmcW0E9ZR2dctrOaq4KzZnptpwYF08lM9FZxDR6uO2U3H9P7HmKeH8S4e81wjP5Zf0Zr7KxivemAosL2Xdb8J57iOkroadc9yf6Hp+E667VRaurcGvE0UOkzDXQUgSNzc285BGK9tBw9JAj5D9aQnMIoL6wrqRrkTqLMffAuTpofHytO3PxOPLwJM+73hpblrrffGz5kx5DAk3s28W7r2J+O/oYF38yP0Kd+AnA7BKtpCBFrQkGFz0HrCL1JFFoQBwpkGykbvKNkXASVL9DyhASXkRBqt7GEDBU7iN1rd0YXoH7UdfIyByMSze7TUu11JCkD3cwzXY6Lpmtx00ljT1ucsvocbp7VhGHidjJs9aRQPkaq4vUb3rsLhcmUAAZX1BN9+txLmqhlZKunlhm9TfMAeczWy8lkGqotu1kTI0CRpbz6nlBkmCo+x6ZOYgXjdoybC7SpBRYC0RtjJD1D8YAjMIMhwR1AdBwkAxAnlFGQxfnAwjXihBB1I+dZAoYmKMRMQTvPwvAAdEA3f7yDJCTj3wACkGIl4nvkEDRbCQZBSBIspO/SQXmGE48ZCYEx5eJkIMOmg5/lCTAQFt0AQWfgN8gB1XidTCTBJCQe8IrCVrwgChTIIreHIGhixHUc+MICQNIQZkEbIuBZOp85MkwI7Qq4dWamFYngykm4FhqGGnTvlujUbFjBXto3POTkMe2MxtVWrEWU+6oBVFvvsNTy1JJnSy/cJCnB1OGpMqga6Dn+cptlhJokYn7XlBkIdMcfL84MhSDJkCMTBkKGJkDgAryMAMAm/MeUAcDHN09YMkwMXPEfjFGBKg6/CBsmBAWgGSBqboAsjZgd0hA3a2sAciQaSEQ8hCED6QkAH7x5D4yE5i9n1PmZA4P/Z;" vertex="1" parent="7">
                    <mxGeometry x="520" y="70" width="250" height="140" as="geometry"/>
                </mxCell>
                <mxCell id="9" value="&lt;font style=&quot;font-size: 24px;&quot;&gt;Doing adding with while loops, With JS&lt;/font&gt;" style="text;html=1;strokeColor=none;fillColor=none;align=center;verticalAlign=middle;whiteSpace=wrap;rounded=0;" vertex="1" parent="7">
                    <mxGeometry y="40" width="430" height="30" as="geometry"/>
                </mxCell>
                <mxCell id="10" value="&lt;font style=&quot;font-size: 12px;&quot;&gt;Enter the number that you want to add&lt;/font&gt;" style="text;html=1;align=center;verticalAlign=middle;resizable=0;points=[];autosize=1;strokeColor=none;fillColor=none;fontSize=24;" vertex="1" parent="7">
                    <mxGeometry y="70" width="230" height="40" as="geometry"/>
                </mxCell>
                <mxCell id="12" value="Number.." style="rounded=1;whiteSpace=wrap;html=1;fontSize=12;" vertex="1" parent="7">
                    <mxGeometry x="10" y="110" width="270" height="30" as="geometry"/>
                </mxCell>
                <mxCell id="13" value="Calculate" style="rounded=1;whiteSpace=wrap;html=1;fontSize=12;" vertex="1" parent="7">
                    <mxGeometry x="20" y="170" width="100" height="40" as="geometry"/>
                </mxCell>
            </root>
        </mxGraphModel>
    </diagram>
</mxfile>